# Blender v3.0.1 OBJ File: 'untitled.blend'
# www.blender.org
mtllib kocky_vstrede.mtl
o Cube
v -1.188277 -0.861381 0.946457
v -1.188277 -0.861380 -1.053543
v 1.311584 -0.861380 -1.053543
v 1.311584 -0.861381 0.946457
v -1.188277 -2.861381 0.946456
v -3.188277 -0.861381 0.946457
v -3.188277 -2.861381 0.946456
v -3.188277 -0.861380 -1.053543
v -3.188277 -2.861380 -1.053543
v -1.188277 -2.861380 -1.053543
v -1.188277 1.068874 -1.053543
v -3.188277 1.068874 -1.053543
v -3.188277 1.068874 0.946457
v -1.188277 1.068874 0.946457
v 1.311584 1.068874 0.946457
v 2.996428 -0.861381 0.946457
v 2.996428 1.068874 0.946457
v 1.311584 1.068874 -1.053543
v -1.188277 1.068874 2.732365
v 1.311584 1.068874 2.732365
v 2.996428 -0.861380 -1.053543
v 2.996428 1.068874 -1.053543
v -1.188277 -0.861381 2.732364
v 1.311584 -0.861381 2.732364
vt 0.625000 0.750000
vt 0.625000 0.500000
vt 0.625000 0.500000
vt 0.625000 0.750000
vt 0.375000 0.750000
vt 0.625000 1.000000
vt 0.375000 1.000000
vt 0.375000 0.000000
vt 0.625000 0.000000
vt 0.625000 0.250000
vt 0.375000 0.250000
vt 0.125000 0.500000
vt 0.375000 0.500000
vt 0.125000 0.750000
vt 0.625000 0.500000
vt 0.875000 0.500000
vt 0.875000 0.750000
vt 0.625000 0.750000
vt 0.625000 0.250000
vt 0.625000 1.000000
vt 0.625000 0.000000
vt 0.625000 0.750000
vt 0.625000 0.750000
vt 0.625000 0.750000
vt 0.625000 0.500000
vt 0.625000 0.750000
vt 0.625000 0.750000
vt 0.625000 0.500000
vt 0.625000 0.500000
vt 0.625000 0.750000
vt 0.625000 0.750000
vn 0.0000 -1.0000 -0.0000
vn 0.0000 -0.0000 1.0000
vn -1.0000 0.0000 0.0000
vn 1.0000 -0.0000 0.0000
vn 0.0000 0.0000 -1.0000
vn 0.0000 1.0000 0.0000
usemtl Material.033
s 1
f 1/1/1 2/2/1 3/3/1 4/4/1
f 5/5/2 1/1/2 6/6/2 7/7/2
f 7/8/3 6/9/3 8/10/3 9/11/3
f 9/12/1 10/13/1 5/5/1 7/14/1
f 10/13/4 2/2/4 1/1/4 5/5/4
f 9/11/5 8/10/5 2/2/5 10/13/5
f 11/15/6 12/16/6 13/17/6 14/18/6
f 2/2/5 8/10/5 12/19/5 11/15/5
f 6/6/2 1/1/2 14/18/2 13/20/2
f 8/10/3 6/9/3 13/21/3 12/19/3
f 15/22/2 4/4/2 16/23/2 17/24/2
f 2/2/5 11/15/5 18/25/5 3/3/5
f 15/22/6 14/18/6 19/26/6 20/27/6
f 11/15/6 14/18/6 15/22/6 18/25/6
f 16/23/4 21/28/4 22/29/4 17/24/4
f 18/25/6 15/22/6 17/24/6 22/29/6
f 3/3/5 18/25/5 22/29/5 21/28/5
f 4/4/1 3/3/1 21/28/1 16/23/1
f 19/26/2 23/30/2 24/31/2 20/27/2
f 1/1/1 4/4/1 24/31/1 23/30/1
f 4/4/4 15/22/4 20/27/4 24/31/4
f 14/18/3 1/1/3 23/30/3 19/26/3
